<svg id="Capa_1" enable-background="new 0 0 512 512" height="512" viewBox="0 0 512 512" width="512" xmlns="http://www.w3.org/2000/svg"><g><path d="m121.08 158.969c-7.426 0-14.116 3.006-18.991 7.881-4.848 4.848-7.853 11.565-7.853 18.964 0 7.398 3.005 14.116 7.853 18.964 4.875 4.848 11.565 7.852 18.991 7.852 7.398 0 14.118-3.004 18.966-7.852 4.847-4.848 7.852-11.565 7.852-18.964s-3.005-14.116-7.852-18.964c-4.848-4.875-11.568-7.881-18.966-7.881zm262.322-14.315v-137.142c0-4.139 3.373-7.512 7.512-7.512s7.484 3.373 7.484 7.512v137.143c8.561 1.559 16.186 5.697 22.081 11.565 7.569 7.597 12.246 18.028 12.246 29.594 0 11.537-4.677 21.997-12.246 29.566-2.154 2.183-4.592 4.11-7.171 5.782l25.88 42.151 10.573 2.551c4.025.965 6.491 5.018 5.499 9.015-.964 4.025-4.989 6.491-9.014 5.499l-13.04-3.146c-2.068-.34-3.996-1.53-5.188-3.458l-28.828-46.941c-2.692.538-5.442.821-8.277.821-2.834 0-5.584-.283-8.249-.821l-28.744 46.743c-1.049 1.701-2.721 3.061-4.733 3.543l-23.074 5.557c8.986 6.065 17.122 13.266 24.236 21.374 19.333 22.082 31.04 50.967 31.04 82.546 0 4.422-.228 8.759-.681 13.067l7.371-3.033c1.758-.737 3.77-.794 5.669 0l56.239 23.216c4.309 1.559 8.958.227 8.561-4.961l-4.733-61.371c-.17-1.983.425-3.911 1.7-5.471 13.381-15.959 26.704-31.776 40.196-47.594 2.608-3.062 1.105-7.853-2.834-8.816l-13.606-3.26c-3.997-.992-6.463-5.018-5.499-9.043.963-3.996 5.017-6.463 9.014-5.499l13.606 3.288c3.515.851 6.52 2.523 8.929 4.734 2.608 2.381 4.479 5.329 5.557 8.504 1.134 3.316 1.417 6.888.736 10.403-.623 3.346-2.098 6.577-4.535 9.412-12.784 15.023-25.455 30.018-38.099 45.155l4.536 58.423c.284 3.855-.51 7.455-2.098 10.602-1.673 3.345-4.224 6.123-7.257 8.051-2.92 1.899-6.322 3.033-9.893 3.26-3.316.17-6.746-.425-10.006-2.013l-53.349-22.025-13.267 5.471c-5.584 22.395-17.178 42.379-32.995 58.196-22.677 22.677-54.028 36.708-88.668 36.708-34.611 0-65.963-14.031-88.669-36.709-15.789-15.817-27.411-35.802-32.995-58.196l-13.267-5.471-53.32 22.025c-3.401 1.645-6.944 2.239-10.346 1.984-3.544-.256-6.974-1.475-9.893-3.459-2.948-1.955-5.387-4.648-6.975-7.908-1.559-3.118-2.324-6.69-2.041-10.517l1.078-14.003c.312-4.11 3.912-7.2 8.022-6.889 4.139.284 7.229 3.884 6.917 8.022l-1.077 14.003c-.369 4.961 4.139 6.576 8.56 4.961l56.239-23.216c1.899-.794 3.94-.737 5.697 0l7.343 3.033c-.453-4.309-.681-8.646-.681-13.067 0-31.579 11.736-60.464 31.068-82.546 7.086-8.108 15.25-15.309 24.208-21.374l-23.046-5.557c-2.013-.482-3.713-1.842-4.762-3.543l-28.715-46.743c-2.666.538-5.444.821-8.251.821-2.834 0-5.612-.283-8.305-.821l-28.828 46.913c-1.135 1.843-2.92 3.033-4.904 3.43l-59.954 14.457c-3.912.964-5.471 5.755-2.834 8.816l40.167 47.141c1.418 1.615 1.928 3.571 1.786 5.669l-1.077 13.748c-.312 4.11-3.912 7.2-8.021 6.916-4.139-.311-7.229-3.911-6.918-8.05l.852-10.941-38.153-44.757c-2.154-2.552-3.572-5.415-4.309-8.42-.879-3.686-.709-7.513.425-11.027 1.134-3.571 3.203-6.831 6.123-9.326 2.324-1.984 5.159-3.486 8.447-4.28l57.232-13.805 25.881-42.151c-2.608-1.672-5.018-3.6-7.2-5.782-7.569-7.569-12.246-18.029-12.246-29.566 0-11.566 4.677-21.997 12.246-29.594 5.896-5.868 13.55-10.007 22.081-11.565v-137.144c0-4.139 3.374-7.512 7.512-7.512 4.139 0 7.484 3.373 7.484 7.512v137.143c8.562 1.559 16.187 5.697 22.083 11.565 7.568 7.597 12.245 18.028 12.245 29.594 0 11.537-4.677 21.997-12.245 29.566-2.184 2.183-4.593 4.11-7.2 5.782l25.88 42.151 35.858 8.646c5.896-2.607 12.02-4.79 18.341-6.491-5.867-7.172-9.354-16.355-9.354-26.362 0-11.536 4.678-21.997 12.246-29.566 5.896-5.895 13.521-10.034 22.082-11.594v-190.434c0-4.139 3.345-7.512 7.483-7.512 4.139 0 7.512 3.373 7.512 7.512v190.434c8.532 1.56 16.186 5.698 22.082 11.594 7.568 7.569 12.245 18.03 12.245 29.566 0 10.007-3.515 19.19-9.354 26.362 6.321 1.701 12.444 3.884 18.312 6.491l35.858-8.646 25.908-42.151c-2.636-1.672-5.045-3.6-7.229-5.782-7.568-7.569-12.245-18.029-12.245-29.566 0-11.566 4.677-21.997 12.245-29.594 5.899-5.868 13.552-10.007 22.085-11.566zm26.476 22.196c-4.847-4.875-11.565-7.881-18.964-7.881-7.426 0-14.117 3.006-18.964 7.881-4.876 4.848-7.881 11.565-7.881 18.964 0 7.398 3.005 14.116 7.881 18.964 4.847 4.848 11.538 7.852 18.964 7.852 7.398 0 14.117-3.004 18.964-7.852 4.848-4.848 7.853-11.565 7.853-18.964-.001-7.399-3.006-14.117-7.853-18.964zm-170.648 110.608c-21.799 3.289-42.011 13.097-58.196 28.064 9.383 3.43 19.56 6.265 30.359 8.334 13.976 2.722 28.971 4.167 44.59 4.167 15.648 0 30.643-1.445 44.618-4.167 10.771-2.069 20.948-4.904 30.359-8.334-16.186-14.968-36.426-24.775-58.225-28.064-5.131 2.24-10.801 3.487-16.753 3.487-5.951 0-11.621-1.247-16.752-3.487zm35.745-57.316c-4.876-4.847-11.565-7.853-18.992-7.853-7.398 0-14.116 3.006-18.964 7.853-4.848 4.848-7.852 11.565-7.852 18.964 0 7.398 3.004 14.116 7.852 18.964 4.848 4.876 11.566 7.881 18.964 7.881 7.427 0 14.116-3.005 18.992-7.881 4.847-4.848 7.852-11.565 7.852-18.964s-3.005-14.117-7.852-18.964zm-104.967 97.173c-3.686 4.564-7.002 9.411-9.95 14.542 12.869 5.669 26.986 10.204 42.01 13.437 16.924 3.656 35.065 5.612 53.916 5.612 18.879 0 36.992-1.956 53.916-5.612 15.052-3.233 29.141-7.768 42.01-13.437-2.92-5.131-6.265-9.978-9.95-14.542-11.764 4.762-24.746 8.589-38.551 11.254-14.968 2.891-30.898 4.45-47.425 4.45-16.497 0-32.457-1.56-47.396-4.45-13.834-2.666-26.788-6.493-38.58-11.254zm-16.47 28.035c-5.131 12.727-7.936 26.674-7.936 41.245 0 14.598 2.806 28.516 7.965 41.272 13.919-6.179 29.169-11.111 45.411-14.598 17.973-3.884 37.135-5.981 57.006-5.981s39.033 2.098 57.034 5.981c16.214 3.486 31.493 8.419 45.411 14.598 5.131-12.756 7.965-26.674 7.965-41.272 0-14.571-2.834-28.518-7.965-41.245-13.918 6.15-29.169 11.111-45.411 14.598-18.001 3.884-37.163 5.981-57.034 5.981s-39.033-2.098-57.006-5.981c-16.243-3.487-31.493-8.448-45.44-14.598zm6.549 95.981c2.947 5.131 6.264 10.006 9.949 14.57 9.439-3.826 19.615-7.029 30.387-9.524 12.076-2.806 24.89-4.706 38.212-5.612 4.139-.256 7.711 2.863 7.994 6.973.256 4.139-2.863 7.711-6.973 7.966-12.558.851-24.605 2.636-35.888 5.272-7.966 1.842-15.562 4.082-22.706 6.718 19.673 18.199 46.008 29.312 74.921 29.312 28.941 0 55.248-11.112 74.949-29.312-7.143-2.636-14.74-4.876-22.706-6.718-11.311-2.637-23.33-4.422-35.887-5.272-4.139-.255-7.258-3.827-6.974-7.966.283-4.109 3.855-7.229 7.966-6.973 13.351.906 26.164 2.807 38.212 5.612 10.8 2.495 20.976 5.698 30.387 9.524 3.714-4.564 7.03-9.439 9.949-14.57-12.84-5.641-26.929-10.176-41.98-13.436-16.924-3.629-35.037-5.613-53.916-5.613-18.851 0-36.992 1.984-53.916 5.613-15.023 3.26-29.111 7.795-41.98 13.436z"/></g></svg>