<svg id="Capa_1" enable-background="new 0 0 512 512"  viewBox="0 0 512 512" xmlns="http://www.w3.org/2000/svg"><g><path d="m150.312 451.351h65.941v30h-65.941z" transform="matrix(.646 -.763 .763 .646 -291.013 304.736)"/><path d="m240.82 441.195h30v70.805h-30z"/><path d="m313.357 433.381h30v65.941h-30z" transform="matrix(.763 -.646 .646 .763 -223.632 322.788)"/><path d="m322.939 149.082c-1.959-29.965-23.615-54.626-52.119-61.144v-87.938h-30v87.938c-29.899 6.837-52.281 33.633-52.281 65.575v3.313l-185.018 117.634 8.048 27.658h170.455c-2.975 8.345-4.534 17.232-4.534 26.378 0 21.027 8.217 40.766 23.139 55.583 14.786 14.682 34.362 22.747 55.184 22.746.188 0 .38 0 .569-.002 20.312-.143 39.543-8.085 54.153-22.364 14.615-14.285 22.989-33.333 23.58-53.636.287-9.854-1.319-19.584-4.585-28.704h170.54l8.409-27.421zm-67.119-32.851c18.066 0 33.166 12.917 36.562 30h-73.125c3.397-17.082 18.497-30 36.563-30zm48.307 213.718c-.747 25.666-22.261 46.693-47.957 46.875-.117 0-.234.001-.351.001-12.849 0-24.93-4.976-34.052-14.034-9.207-9.142-14.277-21.322-14.277-34.295 0-9.532 2.739-18.607 7.828-26.378h81.013c5.358 8.169 8.09 17.755 7.796 27.831zm-241.008-57.831 150.812-95.887h95.598l141.629 95.887z"/></g></svg>