<?xml version="1.0" encoding="iso-8859-1"?>
<!-- Generator: Adobe Illustrator 22.1.0, SVG Export Plug-In . SVG Version: 6.00 Build 0)  -->
<svg xmlns="http://www.w3.org/2000/svg" xmlns:xlink="http://www.w3.org/1999/xlink" version="1.1" id="Layer_3" x="0px" y="0px" viewBox="0 0 64 64" style="enable-background:new 0 0 64 64;" xml:space="preserve" width="512" height="512">
<g>
	<path d="M62,31h-1v-7c0-0.553-0.448-1-1-1h-1v-4h-2v4h-1c-0.552,0-1,0.447-1,1v7h-4v-3c0-0.553-0.448-1-1-1H38H26   c-0.552,0-1,0.447-1,1v3h-4v-7c0-0.553-0.448-1-1-1h-1c0-1.352-0.898-2.497-2.129-2.871C16.497,18.898,15.352,18,14,18   s-2.497,0.898-2.871,2.129C9.898,20.503,9,21.648,9,23H8c-0.552,0-1,0.447-1,1v7H2c-0.552,0-1,0.447-1,1v4c0,0.553,0.448,1,1,1h1   v25c0,0.553,0.448,1,1,1h56c0.552,0,1-0.447,1-1V37h1c0.552,0,1-0.447,1-1v-4C63,31.447,62.552,31,62,31z M57,25h2v6h-2V25z M49,31   H39v-2h10V31z M27,29h10v2H27V29z M12,22c0.552,0,1-0.447,1-1c0-0.552,0.449-1,1-1s1,0.448,1,1c0,0.553,0.448,1,1,1   c0.551,0,1,0.448,1,1h-6C11,22.448,11.449,22,12,22z M9,25h10v6H9V25z M5,37h26v24H5V37z M59,61H33V37h26V61z M61,35h-1H4H3v-2h5   h12h6h12h12h6h4h1V35z"/>
	<path d="M28,47H8c-0.552,0-1,0.447-1,1v10c0,0.553,0.448,1,1,1h20c0.552,0,1-0.447,1-1V48C29,47.447,28.552,47,28,47z M27,49v4H9   v-4H27z M9,57v-2h18v2H9z"/>
	<path d="M10,45c1.654,0,3-1.346,3-3s-1.346-3-3-3s-3,1.346-3,3S8.346,45,10,45z M10,41c0.551,0,1,0.448,1,1s-0.449,1-1,1   s-1-0.448-1-1S9.449,41,10,41z"/>
	<path d="M18,45c1.654,0,3-1.346,3-3s-1.346-3-3-3s-3,1.346-3,3S16.346,45,18,45z M18,41c0.551,0,1,0.448,1,1s-0.449,1-1,1   s-1-0.448-1-1S17.449,41,18,41z"/>
	<path d="M26,45c1.654,0,3-1.346,3-3s-1.346-3-3-3s-3,1.346-3,3S24.346,45,26,45z M26,41c0.551,0,1,0.448,1,1s-0.449,1-1,1   s-1-0.448-1-1S25.449,41,26,41z"/>
	<path d="M36,59h20c0.552,0,1-0.447,1-1V48c0-0.553-0.448-1-1-1H36c-0.552,0-1,0.447-1,1v10C35,58.553,35.448,59,36,59z M37,57v-2   h18v2H37z M55,49v4H37v-4H55z"/>
	<path d="M38,45c1.654,0,3-1.346,3-3s-1.346-3-3-3s-3,1.346-3,3S36.346,45,38,45z M38,41c0.551,0,1,0.448,1,1s-0.449,1-1,1   s-1-0.448-1-1S37.449,41,38,41z"/>
	<path d="M46,45c1.654,0,3-1.346,3-3s-1.346-3-3-3s-3,1.346-3,3S44.346,45,46,45z M46,41c0.551,0,1,0.448,1,1s-0.449,1-1,1   s-1-0.448-1-1S45.449,41,46,41z"/>
	<path d="M54,45c1.654,0,3-1.346,3-3s-1.346-3-3-3s-3,1.346-3,3S52.346,45,54,45z M54,41c0.551,0,1,0.448,1,1s-0.449,1-1,1   s-1-0.448-1-1S53.449,41,54,41z"/>
	<path d="M8,13h48c0.369,0,0.708-0.203,0.882-0.528c0.174-0.325,0.155-0.72-0.05-1.026l-4-6C52.646,5.167,52.334,5,52,5H36V1h-2v4   h-4V1h-2v4H12c-0.334,0-0.646,0.167-0.832,0.445l-4,6c-0.205,0.307-0.224,0.701-0.05,1.026C7.292,12.797,7.631,13,8,13z M12.535,7   H29h6h16.465l2.667,4H9.869L12.535,7z"/>
</g>
</svg>
