<?xml version="1.0" encoding="UTF-8"?>
<!DOCTYPE svg PUBLIC "-//W3C//DTD SVG 1.1//EN" "http://www.w3.org/Graphics/SVG/1.1/DTD/svg11.dtd">
<!-- Creator: CorelDRAW 2019 (64-Bit) -->
<svg xmlns="http://www.w3.org/2000/svg" xml:space="preserve" width="233px" height="80px" version="1.1" style="shape-rendering:geometricPrecision; text-rendering:geometricPrecision; image-rendering:optimizeQuality; fill-rule:evenodd; clip-rule:evenodd"
viewBox="0 0 233 80"
 xmlns:xlink="http://www.w3.org/1999/xlink"
 xmlns:xodm="http://www.corel.com/coreldraw/odm/2003">
 <defs>
  <style type="text/css">
   <![CDATA[
    .fil5 {fill:black;fill-rule:nonzero}
    .fil2 {fill:#6B1068;fill-rule:nonzero}
    .fil1 {fill:#931B66;fill-rule:nonzero}
    .fil0 {fill:#B91665;fill-rule:nonzero}
    .fil4 {fill:#CE2C90;fill-rule:nonzero}
    .fil3 {fill:#DA1364;fill-rule:nonzero}
   ]]>
  </style>
 </defs>
 <g id="Layer_x0020_1">
  <metadata id="CorelCorpID_0Corel-Layer"/>
  <path class="fil0" d="M26.51 10.31c5.08,1.47 14.54,21.23 16.31,34.46 1.21,8.96 1.95,7.85 4.51,6.65 3.2,-1.5 5.1,-5.15 3.63,-11.66 -2.24,-9.91 -8.59,-24.48 -15.09,-30.92 -3.27,-3.25 -8.22,-2.07 -9.36,1.47z"/>
  <path class="fil1" d="M16.11 39.81c-2.07,-1.46 -4.04,-2.95 -5.84,-4.41 -0.79,3.1 -1.35,6.07 -1.63,8.68 -0.54,5.13 0.51,6.55 2.76,7.25 1.42,0.44 7,-1.69 8.83,-5.57 -3.69,0.9 -4.68,-1.37 -4.12,-5.95z"/>
  <path class="fil2" d="M56.54 18.17c6.81,8.06 -37.4,38.05 -45.6,35.5 -2.37,-0.73 -2.93,-4.02 -2.3,-9.59 0,4.43 2.62,4.44 9.85,1.9 7.22,-2.55 25.47,-14.78 27.61,-25.68 0.41,-2.08 -0.8,-3.18 -1.79,-4.18 -0.47,-0.47 -0.29,-1.33 0.37,-1.31 5.02,0.14 10.01,1.16 11.86,3.36z"/>
  <path class="fil3" d="M50.96 39.76c1.24,9.1 -19.99,2.26 -28.33,-2.61 -8.73,-5.1 -18.05,-11.77 -17.38,-15.25 -2.11,3.95 -1.12,8.96 3.23,12 11.93,10.26 33.45,22.45 40.44,19.17 3.16,-1.48 3.45,-7.43 2.04,-13.31z"/>
  <path class="fil4" d="M8.48 33.9c-6.37,-4.12 -8.87,-9.31 -7.43,-12.59 3.18,-7.24 20.83,-3.59 28.01,-0.52 1.38,0.58 2.88,1.7 3.02,2.64 0.13,0.94 -0.83,0.39 -2.68,-0.26 -3.33,-1.17 -13.55,-4.16 -19.82,-0.63 -5.09,2.85 -4.51,8.24 -1.1,11.36z"/>
  <path class="fil1" d="M17.29 33.87c0.5,-1.99 1.11,-4.18 1.8,-6.55 3.61,-12.44 10.16,-22.43 16.78,-18.48 -3.27,-3.25 -5.57,-5.56 -9.42,-4.74 -4.98,1.07 -10.98,14.44 -14.64,25.93 1.66,1.27 3.53,2.57 5.48,3.84z"/>
  <path class="fil5" d="M9.37 76.79l3.61 -8.99 -1.84 0 -2.59 7.01 -2.61 -7.01 -1.79 0 1.8 4.47 -0.94 2.54 -2.59 -7.01 -1.79 0 3.62 8.99 1.59 0 0.96 -2.4 0.97 2.4 1.6 0zm6.61 -7.65l6.79 0 0 -1.33 -6.79 0 0 1.33zm1.46 6.34l0 -2.51 2.55 0 0 -1.32 -4.01 0 0 5.16 6.79 0 0 -1.33 -5.33 0zm16.6 1.64c0.85,0 1.6,-0.12 2.24,-0.35 0.65,-0.22 1.19,-0.56 1.63,-1.01l0 -3.74 -3.74 0 0 1.26 2.12 0 0 1.79c-0.33,0.23 -0.68,0.4 -1.04,0.52 -0.37,0.11 -0.75,0.17 -1.14,0.17 -0.45,0 -0.85,-0.08 -1.22,-0.24 -0.37,-0.15 -0.7,-0.38 -1,-0.69 -0.29,-0.31 -0.51,-0.66 -0.65,-1.06 -0.15,-0.39 -0.22,-0.83 -0.22,-1.32 0,-0.45 0.07,-0.87 0.22,-1.25 0.14,-0.39 0.35,-0.74 0.64,-1.06 0.29,-0.31 0.6,-0.55 0.95,-0.71 0.35,-0.16 0.72,-0.24 1.12,-0.24l3.96 0 0 -1.38 -3.96 0c-0.7,0.02 -1.33,0.15 -1.9,0.39 -0.57,0.24 -1.07,0.58 -1.51,1.03 -0.43,0.45 -0.76,0.95 -0.98,1.49 -0.22,0.54 -0.33,1.12 -0.33,1.76 0,0.66 0.11,1.27 0.33,1.82 0.22,0.55 0.55,1.05 1,1.5 0.44,0.44 0.95,0.77 1.53,0.99 0.58,0.22 1.23,0.33 1.95,0.33zm8.68 -0.31l1.69 0 0 -9.01 -1.69 0 0 9.01zm4.83 -9.01l3.64 9.07 1.61 0 3.64 -9.07 -1.8 0 -2.62 7.07 -2.62 -7.07 -1.85 0zm11.89 1.34l6.79 0 0 -1.33 -6.79 0 0 1.33zm1.46 6.34l0 -2.51 2.55 0 0 -1.32 -4.01 0 0 5.16 6.79 0 0 -1.33 -5.33 0zm18.26 1.34l0 -1.37 -4.77 0 0 -7.65 -1.69 0 0 9.02 6.46 0zm3.61 -0.01l1.69 0 0 -9.01 -1.69 0 0 9.01zm6.82 -0.02l0 -3.68 2.81 0 0 -1.37 -4.49 0 0 5.05 1.68 0zm5.16 -8.98l-6.84 0 0 1.37 6.84 0 0 -1.37zm3.63 1.33l6.8 0 0 -1.33 -6.8 0 0 1.33zm1.46 6.34l0 -2.51 2.56 0 0 -1.32 -4.02 0 0 5.16 6.8 0 0 -1.33 -5.34 0zm14.71 -6.29l0 7.62 1.69 0 0 -7.62 2.91 0 0 -1.39 -7.51 0 0 1.39 2.91 0zm11.62 6.29c-0.44,0 -0.84,-0.08 -1.19,-0.24 -0.19,-0.09 -0.36,-0.18 -0.52,-0.29 -0.15,-0.11 -0.3,-0.24 -0.44,-0.38 -0.13,-0.15 -0.26,-0.31 -0.36,-0.48 -0.11,-0.17 -0.2,-0.35 -0.28,-0.55 -0.07,-0.19 -0.13,-0.4 -0.17,-0.6 -0.04,-0.21 -0.06,-0.42 -0.06,-0.64l0 -0.03c0,-0.22 0.02,-0.44 0.06,-0.64 0.04,-0.21 0.1,-0.41 0.17,-0.6 0.08,-0.19 0.17,-0.37 0.27,-0.54 0.1,-0.17 0.22,-0.32 0.36,-0.47 0.13,-0.14 0.27,-0.27 0.43,-0.38 0.16,-0.12 0.33,-0.21 0.51,-0.29 0.18,-0.08 0.37,-0.14 0.57,-0.18 0.2,-0.04 0.41,-0.06 0.62,-0.06 0.22,0 0.43,0.02 0.62,0.06 0.2,0.04 0.4,0.1 0.58,0.18 0.18,0.09 0.35,0.18 0.51,0.3 0.16,0.11 0.31,0.24 0.44,0.39 0.14,0.14 0.26,0.3 0.37,0.47 0.11,0.17 0.2,0.34 0.28,0.54 0.07,0.19 0.13,0.4 0.16,0.6 0.04,0.21 0.06,0.43 0.06,0.65l0 0.03c0,0.22 -0.02,0.43 -0.06,0.63 -0.03,0.21 -0.09,0.41 -0.16,0.6 -0.08,0.2 -0.17,0.38 -0.28,0.54 -0.1,0.17 -0.22,0.32 -0.35,0.47 -0.13,0.15 -0.28,0.28 -0.43,0.39 -0.17,0.11 -0.34,0.21 -0.51,0.29 -0.19,0.08 -0.38,0.14 -0.58,0.18 -0.2,0.03 -0.41,0.05 -0.62,0.05zm-0.03 1.34c0.35,0 0.68,-0.03 1,-0.09 0.32,-0.06 0.63,-0.15 0.92,-0.27 0.3,-0.12 0.57,-0.26 0.82,-0.43 0.25,-0.16 0.48,-0.35 0.68,-0.56 0.22,-0.21 0.4,-0.43 0.56,-0.67 0.16,-0.24 0.3,-0.49 0.41,-0.76 0.12,-0.28 0.21,-0.56 0.27,-0.85 0.06,-0.28 0.09,-0.58 0.09,-0.89l0 -0.03c0,-0.31 -0.03,-0.61 -0.09,-0.9 -0.06,-0.29 -0.14,-0.57 -0.25,-0.84 -0.12,-0.27 -0.26,-0.52 -0.42,-0.76 -0.16,-0.24 -0.34,-0.46 -0.55,-0.66 -0.21,-0.21 -0.43,-0.39 -0.68,-0.55 -0.25,-0.16 -0.52,-0.3 -0.81,-0.42 -0.59,-0.25 -1.23,-0.37 -1.92,-0.37 -0.7,0 -1.34,0.12 -1.93,0.37 -0.28,0.12 -0.55,0.27 -0.8,0.43 -0.25,0.16 -0.48,0.35 -0.69,0.55 -0.42,0.42 -0.75,0.9 -0.98,1.43 -0.11,0.28 -0.2,0.56 -0.26,0.85 -0.05,0.29 -0.08,0.59 -0.08,0.9l0 0.03c0,0.31 0.03,0.6 0.08,0.89 0.06,0.29 0.15,0.57 0.26,0.84 0.12,0.28 0.25,0.53 0.42,0.76 0.16,0.24 0.34,0.46 0.55,0.66 0.21,0.21 0.43,0.39 0.68,0.56 0.24,0.16 0.51,0.3 0.81,0.42 0.29,0.12 0.6,0.21 0.91,0.27 0.32,0.06 0.65,0.09 1,0.09zm14.79 -3.6l0 3.59 1.69 0 0 -3.63 3.44 -5.38 -1.86 0 -2.42 4 -2.37 -4 -1.93 0 3.45 5.42zm11.52 2.26c-0.44,0 -0.83,-0.08 -1.19,-0.24 -0.18,-0.09 -0.35,-0.18 -0.51,-0.29 -0.16,-0.11 -0.31,-0.24 -0.44,-0.38 -0.14,-0.15 -0.26,-0.31 -0.37,-0.48 -0.11,-0.17 -0.2,-0.35 -0.28,-0.55 -0.07,-0.19 -0.13,-0.4 -0.17,-0.6 -0.04,-0.21 -0.06,-0.42 -0.06,-0.64l0 -0.03c0,-0.22 0.02,-0.44 0.06,-0.64 0.04,-0.21 0.1,-0.41 0.17,-0.6 0.08,-0.19 0.17,-0.37 0.27,-0.54 0.11,-0.17 0.23,-0.32 0.36,-0.47 0.13,-0.14 0.28,-0.27 0.43,-0.38 0.16,-0.12 0.33,-0.21 0.51,-0.29 0.18,-0.08 0.37,-0.14 0.57,-0.18 0.2,-0.04 0.41,-0.06 0.62,-0.06 0.22,0 0.43,0.02 0.63,0.06 0.2,0.04 0.39,0.1 0.57,0.18 0.18,0.09 0.35,0.18 0.51,0.3 0.16,0.11 0.31,0.24 0.45,0.39 0.13,0.14 0.26,0.3 0.36,0.47 0.11,0.17 0.2,0.34 0.28,0.54 0.07,0.19 0.13,0.4 0.17,0.6 0.03,0.21 0.05,0.43 0.05,0.65l0 0.03c0,0.22 -0.02,0.43 -0.05,0.63 -0.04,0.21 -0.1,0.41 -0.17,0.6 -0.08,0.2 -0.17,0.38 -0.27,0.54 -0.11,0.17 -0.23,0.32 -0.36,0.47 -0.13,0.15 -0.27,0.28 -0.43,0.39 -0.16,0.11 -0.33,0.21 -0.51,0.29 -0.18,0.08 -0.38,0.14 -0.58,0.18 -0.19,0.03 -0.4,0.05 -0.62,0.05zm-0.03 1.34c0.35,0 0.68,-0.03 1.01,-0.09 0.32,-0.06 0.62,-0.15 0.92,-0.27 0.29,-0.12 0.56,-0.26 0.81,-0.43 0.25,-0.16 0.48,-0.35 0.69,-0.56 0.21,-0.21 0.39,-0.43 0.55,-0.67 0.16,-0.24 0.3,-0.49 0.41,-0.76 0.12,-0.28 0.21,-0.56 0.27,-0.85 0.06,-0.28 0.09,-0.58 0.09,-0.89l0 -0.03c0,-0.31 -0.03,-0.61 -0.09,-0.9 -0.06,-0.29 -0.14,-0.57 -0.25,-0.84 -0.12,-0.27 -0.25,-0.52 -0.41,-0.76 -0.16,-0.24 -0.35,-0.46 -0.56,-0.66 -0.21,-0.21 -0.43,-0.39 -0.68,-0.55 -0.25,-0.16 -0.52,-0.3 -0.81,-0.42 -0.58,-0.25 -1.23,-0.37 -1.92,-0.37 -0.7,0 -1.34,0.12 -1.93,0.37 -0.28,0.12 -0.55,0.27 -0.8,0.43 -0.25,0.16 -0.48,0.35 -0.68,0.55 -0.43,0.42 -0.75,0.9 -0.99,1.43 -0.11,0.28 -0.2,0.56 -0.25,0.85 -0.06,0.29 -0.09,0.59 -0.09,0.9l0 0.03c0,0.31 0.03,0.6 0.09,0.89 0.05,0.29 0.14,0.57 0.25,0.84 0.12,0.28 0.26,0.53 0.42,0.76 0.16,0.24 0.34,0.46 0.55,0.66 0.21,0.21 0.43,0.39 0.68,0.56 0.25,0.16 0.52,0.3 0.81,0.42 0.29,0.12 0.6,0.21 0.92,0.27 0.31,0.06 0.64,0.09 0.99,0.09zm12.43 0.14c0.31,0 0.61,-0.02 0.89,-0.07 0.28,-0.04 0.54,-0.1 0.78,-0.19 0.25,-0.09 0.48,-0.19 0.69,-0.32 0.21,-0.12 0.4,-0.27 0.57,-0.43 0.17,-0.17 0.32,-0.36 0.45,-0.57 0.13,-0.21 0.24,-0.44 0.33,-0.69 0.09,-0.25 0.16,-0.52 0.2,-0.82 0.05,-0.29 0.07,-0.61 0.07,-0.95l0 -5.12 -1.69 0 0 5.2c0,0.84 -0.21,1.49 -0.62,1.92 -0.2,0.21 -0.44,0.37 -0.71,0.48 -0.28,0.11 -0.59,0.16 -0.94,0.16 -0.34,0 -0.66,-0.05 -0.93,-0.16 -0.27,-0.11 -0.51,-0.28 -0.72,-0.51 -0.2,-0.21 -0.36,-0.49 -0.46,-0.82 -0.1,-0.33 -0.15,-0.71 -0.15,-1.14l0 -5.13 -1.69 0 0 5.18c0,0.67 0.08,1.24 0.25,1.74 0.18,0.49 0.43,0.9 0.78,1.24 0.34,0.33 0.76,0.58 1.24,0.75 0.48,0.16 1.04,0.25 1.66,0.25zm16.24 -0.15l-2.25 -3.31c0.74,-0.23 1.3,-0.58 1.67,-1.05 0.37,-0.47 0.55,-1.06 0.55,-1.77 0,-0.82 -0.24,-1.48 -0.73,-1.97 -0.3,-0.3 -0.67,-0.53 -1.12,-0.68 -0.44,-0.16 -0.96,-0.23 -1.54,-0.23l-4.17 0 0 9.01 1.7 0 0 -7.66 2.29 0c0.62,0.01 1.08,0.15 1.39,0.43 0.31,0.28 0.47,0.69 0.47,1.25 -0.03,0.54 -0.2,0.94 -0.5,1.21 -0.3,0.26 -0.74,0.4 -1.32,0.4l-1.31 0 2.98 4.37 1.89 0zm14.15 -0.02l0 -8.98 -1.7 0 0 2.99 -4.27 1.35 0 -4.34 -1.68 0 0 8.98 1.68 0 0 -2.92 4.27 -1.35 0 4.27 1.7 0zm8.61 -1.31c-0.43,0 -0.83,-0.08 -1.18,-0.24 -0.19,-0.09 -0.36,-0.18 -0.52,-0.29 -0.15,-0.11 -0.3,-0.24 -0.44,-0.38 -0.14,-0.15 -0.26,-0.31 -0.37,-0.48 -0.1,-0.17 -0.2,-0.35 -0.27,-0.55 -0.08,-0.19 -0.13,-0.4 -0.17,-0.6 -0.04,-0.21 -0.06,-0.42 -0.06,-0.64l0 -0.03c0,-0.22 0.02,-0.44 0.06,-0.64 0.04,-0.21 0.09,-0.41 0.17,-0.6 0.07,-0.19 0.16,-0.37 0.27,-0.54 0.1,-0.17 0.22,-0.32 0.36,-0.47 0.13,-0.14 0.27,-0.27 0.43,-0.38 0.15,-0.12 0.33,-0.21 0.51,-0.29 0.18,-0.08 0.37,-0.14 0.57,-0.18 0.2,-0.04 0.41,-0.06 0.62,-0.06 0.22,0 0.42,0.02 0.62,0.06 0.2,0.04 0.39,0.1 0.58,0.18 0.17,0.09 0.35,0.18 0.51,0.3 0.16,0.11 0.31,0.24 0.44,0.39 0.14,0.14 0.26,0.3 0.37,0.47 0.11,0.17 0.2,0.34 0.27,0.54 0.08,0.19 0.13,0.4 0.17,0.6 0.03,0.21 0.05,0.43 0.05,0.65l0 0.03c0,0.22 -0.02,0.43 -0.05,0.63 -0.04,0.21 -0.09,0.41 -0.17,0.6 -0.07,0.2 -0.16,0.38 -0.27,0.54 -0.11,0.17 -0.22,0.32 -0.35,0.47 -0.13,0.15 -0.28,0.28 -0.44,0.39 -0.16,0.11 -0.33,0.21 -0.51,0.29 -0.18,0.08 -0.37,0.14 -0.57,0.18 -0.2,0.03 -0.41,0.05 -0.63,0.05zm-0.02 1.34c0.34,0 0.68,-0.03 1,-0.09 0.32,-0.06 0.63,-0.15 0.92,-0.27 0.29,-0.12 0.57,-0.26 0.82,-0.43 0.25,-0.16 0.48,-0.35 0.68,-0.56 0.21,-0.21 0.4,-0.43 0.56,-0.67 0.16,-0.24 0.29,-0.49 0.41,-0.76 0.12,-0.28 0.21,-0.56 0.26,-0.85 0.07,-0.28 0.1,-0.58 0.1,-0.89l0 -0.03c0,-0.31 -0.03,-0.61 -0.09,-0.9 -0.06,-0.29 -0.15,-0.57 -0.26,-0.84 -0.11,-0.27 -0.25,-0.52 -0.41,-0.76 -0.16,-0.24 -0.34,-0.46 -0.55,-0.66 -0.21,-0.21 -0.44,-0.39 -0.69,-0.55 -0.25,-0.16 -0.52,-0.3 -0.8,-0.42 -0.59,-0.25 -1.23,-0.37 -1.93,-0.37 -0.69,0 -1.33,0.12 -1.92,0.37 -0.29,0.12 -0.56,0.27 -0.81,0.43 -0.25,0.16 -0.47,0.35 -0.68,0.55 -0.42,0.42 -0.75,0.9 -0.98,1.43 -0.12,0.28 -0.2,0.56 -0.26,0.85 -0.06,0.29 -0.08,0.59 -0.08,0.9l0 0.03c0,0.31 0.02,0.6 0.08,0.89 0.06,0.29 0.14,0.57 0.26,0.84 0.11,0.28 0.25,0.53 0.41,0.76 0.16,0.24 0.35,0.46 0.56,0.66 0.2,0.21 0.43,0.39 0.68,0.56 0.24,0.16 0.51,0.3 0.81,0.42 0.29,0.12 0.59,0.21 0.91,0.27 0.32,0.06 0.65,0.09 1,0.09zm17.73 0l0 -9.02 -1.98 0 -2.59 3.97 -2.61 -3.97 -1.98 0 0 9.02 1.65 0 0 -6.66 2.12 3.21 0 3.45 1.62 0 0 -3.54 2.09 -3.16 0 6.7 1.68 0zm3.44 -7.68l6.8 0 0 -1.33 -6.8 0 0 1.33zm1.46 6.34l0 -2.51 2.56 0 0 -1.32 -4.02 0 0 5.16 6.8 0 0 -1.33 -5.34 0z"/>
  <path class="fil5" d="M97.56 26.51l-9.46 -22.24 -4.16 0 -9.49 22.24 11 0 0 -3.18 -5.6 0 6.11 -14.94 7.38 18.12 4.22 0zm24.64 -0.1l0 -22.18 -4.13 0 0 15.4 -11.71 -15.4 -4.06 0 0 22.18 4.09 0 0 -15.87 12.08 15.87 3.73 0zm13.49 -0.03c1.79,0 3.42,-0.27 4.87,-0.81 1.45,-0.53 2.73,-1.34 3.82,-2.41 1.1,-1.08 1.94,-2.27 2.49,-3.58 0.56,-1.31 0.83,-2.75 0.83,-4.31 0,-3.08 -1.11,-5.7 -3.32,-7.85 -1.09,-1.06 -2.37,-1.85 -3.82,-2.39 -1.45,-0.53 -3.08,-0.8 -4.87,-0.8l-8.66 0 0 22.15 8.66 0zm0 -3.32l-4.5 0 0 -15.51 4.53 0c2.52,0.31 4.41,1.11 5.66,2.43 1.26,1.31 1.89,3.13 1.89,5.46 -0.25,2.53 -1.01,4.43 -2.28,5.71 -1.27,1.27 -3.04,1.91 -5.3,1.91zm26.04 3.32c0.6,0 1.18,-0.04 1.74,-0.12 0.55,-0.08 1.08,-0.2 1.58,-0.35 0.97,-0.3 1.81,-0.74 2.52,-1.31 0.33,-0.27 0.63,-0.57 0.9,-0.91 0.26,-0.33 0.49,-0.7 0.67,-1.1 0.19,-0.41 0.33,-0.84 0.43,-1.29 0.09,-0.45 0.14,-0.93 0.14,-1.43l0 -0.07c0,-0.9 -0.13,-1.67 -0.4,-2.31 -0.15,-0.3 -0.33,-0.6 -0.54,-0.88 -0.2,-0.28 -0.45,-0.55 -0.73,-0.8 -0.29,-0.24 -0.61,-0.46 -0.98,-0.68 -0.37,-0.21 -0.77,-0.41 -1.2,-0.6 -0.46,-0.18 -0.94,-0.36 -1.44,-0.53 -0.51,-0.17 -1.05,-0.34 -1.62,-0.51 -1.01,-0.23 -1.84,-0.47 -2.52,-0.7 -0.33,-0.1 -0.63,-0.2 -0.91,-0.31 -0.27,-0.11 -0.51,-0.23 -0.73,-0.36 -0.22,-0.14 -0.41,-0.28 -0.58,-0.44 -0.16,-0.15 -0.29,-0.33 -0.39,-0.54 -0.1,-0.18 -0.18,-0.39 -0.23,-0.62 -0.05,-0.22 -0.07,-0.47 -0.07,-0.72l0 -0.06c0,-0.41 0.08,-0.78 0.24,-1.11 0.16,-0.32 0.39,-0.61 0.7,-0.84 0.31,-0.25 0.68,-0.44 1.11,-0.56 0.42,-0.12 0.9,-0.18 1.44,-0.18 0.52,0 1.04,0.05 1.55,0.16 0.52,0.1 1.03,0.26 1.53,0.48 0.52,0.22 1.02,0.45 1.49,0.69 0.47,0.25 0.91,0.52 1.33,0.82l1.98 -2.89c-0.4,-0.31 -0.87,-0.61 -1.41,-0.89 -0.54,-0.27 -1.16,-0.53 -1.84,-0.78 -0.69,-0.26 -1.42,-0.44 -2.18,-0.56 -0.77,-0.12 -1.57,-0.18 -2.39,-0.18 -0.57,0 -1.12,0.04 -1.65,0.12 -0.53,0.08 -1.03,0.2 -1.5,0.35 -0.47,0.17 -0.91,0.36 -1.31,0.58 -0.4,0.22 -0.77,0.47 -1.11,0.76 -0.32,0.27 -0.6,0.57 -0.85,0.9 -0.26,0.34 -0.47,0.69 -0.66,1.08 -0.33,0.74 -0.5,1.58 -0.5,2.52l0 0.06c0,0.51 0.03,0.98 0.11,1.4 0.07,0.43 0.19,0.82 0.36,1.15 0.15,0.34 0.34,0.65 0.58,0.93 0.22,0.29 0.49,0.55 0.79,0.78 0.31,0.24 0.65,0.46 1.03,0.66 0.38,0.2 0.8,0.38 1.26,0.55 0.45,0.17 0.93,0.34 1.46,0.49 0.52,0.17 1.07,0.32 1.66,0.45 0.48,0.12 0.93,0.24 1.33,0.37 0.41,0.12 0.76,0.24 1.08,0.34 0.31,0.11 0.59,0.23 0.85,0.35 0.26,0.12 0.49,0.25 0.7,0.39 0.2,0.13 0.36,0.27 0.5,0.43 0.14,0.15 0.25,0.32 0.33,0.5 0.11,0.19 0.17,0.38 0.22,0.59 0.04,0.2 0.05,0.42 0.05,0.66l0 0.06c0,0.47 -0.08,0.88 -0.25,1.23 -0.18,0.36 -0.45,0.65 -0.82,0.89 -0.35,0.25 -0.76,0.43 -1.23,0.56 -0.46,0.11 -0.97,0.17 -1.52,0.17 -0.69,0 -1.35,-0.06 -1.99,-0.2 -0.63,-0.13 -1.23,-0.33 -1.8,-0.6 -0.59,-0.27 -1.14,-0.55 -1.65,-0.87 -0.51,-0.31 -0.99,-0.64 -1.44,-1.01l-2.25 2.72c0.49,0.45 1.06,0.86 1.73,1.23 0.67,0.37 1.41,0.7 2.23,0.98 0.82,0.31 1.66,0.53 2.49,0.68 0.85,0.15 1.71,0.23 2.58,0.23zm24.33 -3.26c-1.08,0 -2.05,-0.2 -2.92,-0.6 -0.46,-0.2 -0.87,-0.44 -1.27,-0.71 -0.38,-0.27 -0.75,-0.58 -1.08,-0.93 -0.34,-0.37 -0.64,-0.76 -0.9,-1.17 -0.27,-0.42 -0.49,-0.86 -0.68,-1.35 -0.18,-0.49 -0.32,-0.98 -0.42,-1.49 -0.1,-0.51 -0.15,-1.03 -0.15,-1.56l0 -0.07c0,-0.56 0.05,-1.09 0.15,-1.59 0.1,-0.51 0.24,-0.99 0.42,-1.46 0.19,-0.47 0.4,-0.92 0.66,-1.34 0.25,-0.41 0.55,-0.8 0.88,-1.15 0.32,-0.35 0.68,-0.67 1.06,-0.95 0.39,-0.27 0.81,-0.51 1.26,-0.69 0.44,-0.2 0.91,-0.35 1.4,-0.45 0.49,-0.11 1,-0.16 1.52,-0.16 0.54,0 1.05,0.05 1.54,0.16 0.49,0.1 0.96,0.25 1.41,0.45 0.44,0.2 0.86,0.44 1.25,0.73 0.4,0.28 0.76,0.59 1.1,0.95 0.34,0.35 0.64,0.73 0.9,1.15 0.27,0.42 0.49,0.86 0.68,1.33 0.18,0.49 0.32,0.98 0.41,1.49 0.08,0.51 0.12,1.04 0.12,1.6l0 0.06c0,0.54 -0.04,1.06 -0.12,1.56 -0.09,0.51 -0.23,0.99 -0.41,1.46 -0.19,0.49 -0.41,0.94 -0.67,1.35 -0.26,0.4 -0.56,0.78 -0.88,1.14 -0.31,0.36 -0.67,0.68 -1.06,0.96 -0.4,0.28 -0.81,0.51 -1.25,0.71 -0.45,0.21 -0.92,0.35 -1.42,0.44 -0.48,0.09 -1,0.13 -1.53,0.13zm-0.07 3.29c0.86,0 1.68,-0.07 2.47,-0.22 0.78,-0.15 1.54,-0.37 2.26,-0.65 0.72,-0.3 1.39,-0.65 2.01,-1.06 0.62,-0.41 1.18,-0.87 1.68,-1.39 0.52,-0.5 0.97,-1.05 1.37,-1.64 0.39,-0.59 0.73,-1.21 1.01,-1.88 0.29,-0.67 0.51,-1.36 0.65,-2.07 0.15,-0.71 0.23,-1.44 0.23,-2.19l0 -0.07c0,-0.77 -0.08,-1.51 -0.22,-2.23 -0.15,-0.71 -0.35,-1.39 -0.62,-2.07 -0.29,-0.65 -0.62,-1.27 -1.01,-1.85 -0.4,-0.59 -0.85,-1.13 -1.37,-1.64 -0.51,-0.5 -1.07,-0.95 -1.68,-1.34 -0.62,-0.39 -1.28,-0.74 -1.98,-1.04 -1.45,-0.6 -3.02,-0.9 -4.73,-0.9 -1.71,0 -3.29,0.3 -4.73,0.9 -0.71,0.3 -1.37,0.66 -1.98,1.06 -0.62,0.4 -1.18,0.86 -1.68,1.36 -1.04,1.04 -1.85,2.21 -2.42,3.52 -0.28,0.67 -0.5,1.36 -0.63,2.07 -0.14,0.72 -0.21,1.45 -0.21,2.23l0 0.06c0,0.76 0.07,1.49 0.21,2.2 0.13,0.71 0.35,1.39 0.63,2.06 0.29,0.68 0.62,1.3 1.02,1.87 0.39,0.58 0.84,1.12 1.36,1.62 0.51,0.51 1.06,0.96 1.67,1.36 0.61,0.41 1.27,0.76 1.99,1.06 0.72,0.28 1.47,0.5 2.25,0.65 0.78,0.15 1.59,0.22 2.45,0.22zm32.42 0l0 -3.35 -11.75 0 0 -18.83 -4.16 0 0 22.18 15.91 0zm-144.17 27.01l4.17 0 0 -22.14 -4.17 0 0 22.14zm28.9 0.04l0 -22.18 -4.13 0 0 15.4 -11.71 -15.4 -4.06 0 0 22.18 4.09 0 0 -15.87 12.08 15.87 3.73 0zm11.98 -18.76l0 18.72 4.16 0 0 -18.72 7.14 0 0 -3.42 -18.45 0 0 3.42 7.15 0zm16.14 -0.13l16.71 0 0 -3.26 -16.71 0 0 3.26zm3.59 15.6l0 -6.17 6.27 0 0 -3.26 -9.86 0 0 12.68 16.71 0 0 -3.25 -13.12 0zm36.61 3.25l-5.54 -8.12c1.83,-0.57 3.2,-1.43 4.11,-2.59 0.91,-1.16 1.36,-2.61 1.36,-4.35 0,-2.01 -0.6,-3.63 -1.81,-4.83 -0.74,-0.76 -1.65,-1.32 -2.74,-1.69 -1.09,-0.38 -2.36,-0.56 -3.8,-0.56l-10.24 0 0 22.14 4.16 0 0 -18.82 5.64 0c1.53,0.02 2.67,0.37 3.43,1.06 0.76,0.69 1.14,1.71 1.14,3.07 -0.07,1.32 -0.47,2.31 -1.22,2.97 -0.74,0.66 -1.82,0.99 -3.25,0.99l-3.22 0 7.32 10.73 4.66 0zm4.94 0l4.16 0 0 -22.14 -4.16 0 0 22.14zm20.63 -3.25c-1.07,0 -2.04,-0.2 -2.92,-0.6 -0.45,-0.21 -0.87,-0.44 -1.26,-0.71 -0.39,-0.27 -0.75,-0.59 -1.08,-0.94 -0.34,-0.37 -0.64,-0.75 -0.9,-1.17 -0.27,-0.41 -0.5,-0.86 -0.68,-1.34 -0.19,-0.49 -0.33,-0.99 -0.43,-1.49 -0.09,-0.51 -0.14,-1.03 -0.14,-1.57l0 -0.07c0,-0.55 0.05,-1.08 0.14,-1.58 0.1,-0.51 0.24,-1 0.43,-1.47 0.18,-0.47 0.4,-0.91 0.66,-1.33 0.25,-0.41 0.55,-0.8 0.88,-1.15 0.32,-0.35 0.67,-0.67 1.06,-0.95 0.38,-0.28 0.8,-0.51 1.26,-0.7 0.43,-0.2 0.9,-0.35 1.39,-0.45 0.5,-0.1 1.01,-0.15 1.53,-0.15 0.53,0 1.05,0.05 1.53,0.15 0.5,0.1 0.97,0.25 1.42,0.45 0.44,0.2 0.85,0.45 1.25,0.73 0.39,0.28 0.76,0.6 1.1,0.95 0.33,0.35 0.64,0.74 0.9,1.15 0.27,0.42 0.49,0.86 0.67,1.33 0.19,0.49 0.32,0.99 0.41,1.5 0.09,0.51 0.13,1.04 0.13,1.59l0 0.07c0,0.54 -0.04,1.06 -0.13,1.56 -0.09,0.5 -0.22,0.99 -0.41,1.46 -0.18,0.49 -0.4,0.93 -0.67,1.34 -0.26,0.41 -0.55,0.79 -0.87,1.14 -0.32,0.37 -0.68,0.69 -1.07,0.96 -0.39,0.28 -0.81,0.52 -1.24,0.72 -0.46,0.2 -0.93,0.35 -1.42,0.44 -0.49,0.08 -1,0.13 -1.54,0.13zm-0.06 3.29c0.85,0 1.67,-0.07 2.46,-0.23 0.79,-0.14 1.55,-0.36 2.27,-0.65 0.72,-0.3 1.39,-0.65 2,-1.06 0.63,-0.4 1.19,-0.86 1.69,-1.38 0.52,-0.51 0.97,-1.06 1.37,-1.64 0.39,-0.59 0.73,-1.22 1.01,-1.89 0.29,-0.67 0.5,-1.36 0.65,-2.07 0.15,-0.7 0.22,-1.43 0.22,-2.19l0 -0.07c0,-0.77 -0.07,-1.51 -0.21,-2.22 -0.15,-0.71 -0.36,-1.4 -0.63,-2.07 -0.28,-0.66 -0.62,-1.28 -1.01,-1.86 -0.4,-0.58 -0.85,-1.13 -1.37,-1.63 -0.5,-0.5 -1.06,-0.95 -1.68,-1.34 -0.61,-0.39 -1.27,-0.74 -1.98,-1.04 -1.44,-0.61 -3.02,-0.91 -4.73,-0.91 -1.71,0 -3.29,0.3 -4.73,0.91 -0.7,0.3 -1.36,0.65 -1.98,1.05 -0.61,0.41 -1.17,0.86 -1.68,1.36 -1.03,1.04 -1.84,2.22 -2.41,3.53 -0.29,0.67 -0.5,1.35 -0.63,2.07 -0.14,0.71 -0.21,1.45 -0.21,2.22l0 0.07c0,0.75 0.07,1.49 0.21,2.19 0.13,0.71 0.34,1.4 0.63,2.07 0.28,0.67 0.62,1.29 1.02,1.87 0.39,0.58 0.84,1.12 1.36,1.62 0.5,0.5 1.06,0.96 1.67,1.36 0.6,0.4 1.27,0.75 1.99,1.05 0.72,0.29 1.47,0.51 2.25,0.65 0.77,0.16 1.59,0.23 2.45,0.23zm35.16 -0.04l-5.53 -8.12c1.83,-0.57 3.2,-1.43 4.1,-2.59 0.91,-1.16 1.37,-2.61 1.37,-4.35 0,-2.01 -0.61,-3.63 -1.82,-4.83 -0.73,-0.76 -1.65,-1.32 -2.74,-1.69 -1.09,-0.38 -2.36,-0.56 -3.8,-0.56l-10.23 0 0 22.14 4.16 0 0 -18.82 5.63 0c1.53,0.02 2.67,0.37 3.43,1.06 0.76,0.69 1.14,1.71 1.14,3.07 -0.07,1.32 -0.47,2.31 -1.21,2.97 -0.74,0.66 -1.83,0.99 -3.25,0.99l-3.23 0 7.32 10.73 4.66 0z"/>
 </g>
</svg>
